<?xml version="1.0" encoding="UTF-8"?>
<svg id="_圖層_1" xmlns="http://www.w3.org/2000/svg" version="1.1" viewBox="0 0 160 160">
  <!-- Generator: Adobe Illustrator 29.8.2, SVG Export Plug-In . SVG Version: 2.1.1 Build 3)  -->
  <defs>
    <style>
      .st0 {
        fill: #45789d;
      }

      .st1 {
        fill: #fff;
      }

      .st2 {
        fill: #1d3557;
      }
    </style>
  </defs>
  <polygon class="st1" points="159.84 0 160 0 160 160 0 160 0 159.84 159.84 159.84 159.84 0"/>
  <path class="st0" d="M79.51,9.78l41.55,41.58c.58,1.6-.21,3.16-1.89,3.58h-22.63c-.71.09-1.24.98-1.32,1.64v24.67c-.09,1.19-.5,1.78-1.24,2.65-2.31,2.72-5.62,5.61-8.2,8.2-4.37,4.4-8.83,8.7-13.29,13.01-1.46,1.41-2,2.92-4.49,2.59-1.53-.21-2.25-1.46-3.21-2.41-1.84-1.81-4.23-3.8-5.86-5.69-.58-.67-1.23-1.41-1.46-2.29-.4-13.55-.06-27.15-.17-40.73.03-.8-.71-1.56-1.49-1.63h-22.46c-1.8-.23-2.68-2.04-1.78-3.65.39-.7,1.11-1.15,1.62-1.66,13.4-13.68,27.18-26.93,40.65-40.51,1.77-1.75,4.25-1.24,5.68.65h-.01ZM80.13,12.59c-.4-.37-.76-.94-1.22-1.36-1.2-1.1-2.26-2.34-3.9-1.09-1.14.88-2.79,2.65-3.92,3.74-11.46,11.04-22.67,22.49-33.89,33.77-1.02,1.02-3.27,3.04-4.01,4.02-.34.44-.67.91-.26,1.46.32.17.66.21,1.01.23,7.16.57,15.09-.44,22.33,0,1.47.17,2.46,1.27,2.59,2.73l.04,40.24c.13.39.17.85.35,1.22.44.91,4.97,5.19,6.01,6.17.62.58,2.37,2.31,3.06,2.41.83.12,1.27-.28,1.86-.78l23.24-23.27.26-1.15v-24.83c.21-1.47,1.36-2.65,2.87-2.74h22.18c1.77-.56.62-1.73-.18-2.62-4.4-4.9-9.97-9.72-14.68-14.43-7.9-7.91-15.66-15.97-23.73-23.73h-.01Z"/>
  <path class="st2" d="M114.47,108.71c-14.13,14.03-28.14,28.25-42.44,42.09-2.07,2-3.56,4.78-6.96,2.57-11.04-11.44-22.71-22.19-33.81-33.54-.98-1.01-3.23-3.05-3.34-4.4-.06-.93.31-1.56.87-2.26,3.88-3.18,7.41-7.99,11.31-11,.93-.72,1.85-.85,3.01-.66,1.59.27,2.84,2.17,3.93,3.23,6.37,6.14,12.62,12.46,18.89,18.74,1.11.84,2.21.37,3.12-.47,1.23-1.14,2.5-2.7,3.74-3.9,14.16-13.84,28.16-27.93,42.24-41.88,1.28-1.18,3.13-1.46,4.59-.4,3.09,2.24,5.97,6.75,9.22,9.05,1.63,1.72,4.34,3.44,2.5,6.09-5.56,5.65-11.25,11.17-16.87,16.76h0ZM122.95,82.16c-1.02-.98-3.35-3.56-4.32-4.19-1.76-1.14-2.83.88-3.89,1.87-15.37,14.39-29.74,29.86-44.88,44.56-1.73,1.42-3.16,1.42-5,.16-6.94-6.71-13.51-13.91-20.61-20.44-.94-.87-1.36-1.84-2.96-.94-3.4,3.58-7.33,6.76-10.69,10.38-.66.7-1.41,1.45-.89,2.46,11.11,11,22.1,22.21,33.28,33.05.8.78,2.41,2.7,3.21,3.19s1.51.45,2.26-.06c1.02-.72,2.44-2.5,3.43-3.44,7.94-7.6,15.59-15.52,23.4-23.26,11.57-11.46,23.26-22.85,34.81-34.34.36-.53.36-1.33,0-1.86-2.39-2.37-4.73-4.8-7.15-7.14h.01Z"/>
  <path class="st0" d="M80.13,12.59c8.07,7.76,15.83,15.81,23.73,23.73,4.71,4.71,10.29,9.53,14.68,14.43.8.91,1.95,2.07.18,2.65h-22.18c-1.53.06-2.66,1.25-2.88,2.73v24.83l-.25,1.15-23.24,23.27c-.59.49-1.03.88-1.86.78-.7-.09-2.43-1.84-3.06-2.41-1.05-.98-5.57-5.26-6.01-6.17-.17-.36-.22-.83-.35-1.22l-.04-40.24c-.13-1.46-1.1-2.56-2.59-2.73-7.24-.44-15.17.58-22.33,0-.35-.03-.69-.08-1.01-.23-.41-.56-.08-1.02.26-1.46.74-.98,2.99-3,4.01-4.02,11.22-11.29,22.43-22.73,33.89-33.77,1.12-1.09,2.77-2.86,3.92-3.74,1.64-1.25,2.7,0,3.9,1.09.45.41.83.97,1.22,1.36v-.03Z"/>
  <path class="st2" d="M122.95,82.16c2.42,2.33,4.76,4.77,7.15,7.14.36.53.36,1.33,0,1.86-11.55,11.5-23.25,22.89-34.81,34.34-7.81,7.73-15.48,15.66-23.4,23.26-.98.94-2.41,2.72-3.43,3.44-.75.53-1.46.56-2.26.06s-2.41-2.42-3.21-3.19c-11.2-10.84-22.18-22.05-33.28-33.05-.52-1.01.23-1.76.89-2.46,3.37-3.61,7.29-6.79,10.69-10.38,1.6-.89,2.02.08,2.96.94,7.1,6.53,13.65,13.73,20.61,20.44,1.84,1.27,3.26,1.27,5-.16,15.14-14.7,29.51-30.17,44.88-44.56,1.06-1,2.12-3.01,3.89-1.87.97.62,3.3,3.19,4.32,4.19h-.01Z"/>
</svg>